<svg width="13" height="11" viewBox="0 0 13 11" fill="none" xmlns="http://www.w3.org/2000/svg">
<path d="M11.7725 0.516602C11.83 0.583615 11.83 0.71908 11.7725 0.786133L3.93555 9.90723C3.9288 9.91508 3.92234 9.91858 3.91895 9.9209C3.91558 9.91866 3.90937 9.9154 3.90234 9.90723L0.542969 5.99805C0.48566 5.9309 0.485468 5.79544 0.542969 5.72852C0.550216 5.72009 0.556247 5.71603 0.55957 5.71387C0.562808 5.71593 0.568769 5.71995 0.576172 5.72852L3.53906 9.17676L3.91895 9.61816L4.29785 9.17676L11.7393 0.516602C11.7465 0.508149 11.7525 0.50412 11.7559 0.501953C11.7591 0.504069 11.7651 0.508073 11.7725 0.516602Z" fill="#F7F7F7" stroke="#F7F7F7"/>
</svg>
